Format                           : AVI
Format/Info                      : Audio Video Interleave
File size                        : 982 MiB
Duration                         : 1h 23mn
Overall bit rate                 : 1 652 Kbps
Writing application              : Lavf52.13.0
Writing library                  : VirtualDub build 32842/release

Video
ID                               : 0
Format                           : MPEG-4 Visual
Format profile                   : Advanced Simple@L5
Format settings, BVOP            : 2
Format settings, QPel            : No
Format settings, GMC             : No warppoints
Format settings, Matrix          : Default (H.263)
Muxing mode                      : Packed bitstream
Codec ID                         : XVID
Codec ID/Hint                    : XviD
Duration                         : 1h 23mn
Bit rate                         : 1 447 Kbps
Width                            : 720 pixels
Height                           : 400 pixels
Display aspect ratio             : 16:9
Frame rate                       : 25.000 fps
Color space                      : YUV
Chroma subsampling               : 4:2:0
Bit depth                        : 8 bits
Scan type                        : Progressive
Compression mode                 : Lossy
Bits/(Pixel*Frame)               : 0.201
Stream size                      : 860 MiB (88%)
Writing library                  : XviD 64

Audio
ID                               : 1
Format                           : MPEG Audio
Format version                   : Version 1
Format profile                   : Layer 3
Mode                             : Joint stereo
Mode extension                   : MS Stereo
Codec ID                         : 55
Codec ID/Hint                    : MP3
Duration                         : 1h 23mn
Bit rate mode                    : Constant
Bit rate                         : 192 Kbps
Channel(s)                       : 2 channels
Sampling rate                    : 44.1 KHz
Compression mode                 : Lossy
Stream size                      : 114 MiB (12%)
Alignment                        : Aligned on interleaves
Interleave, duration             : 26 ms (0.65 video frame)
Interleave, preload duration     : 522 ms
Writing library                  : LAME3.98 (beta)





 
http://www.imdb.com/title/tt1712578/








Set in the Channel Islands on the eve of D Day,two Kiwi commandos, sent to destroy German gun emplacements to distract Hitler's forces away from Normandy, discover a Nazi occult plot to unleash demonic forces to win the war. 

 Director: Paul Campion
 Writers: Paul Finch (screenplay), Paul Campion (screenplay),  and 2 more credits » 
Stars: Craig Hall, Matthew Sunderland and Gina Varela




[img]http://leetleech.org/images/95521316153253938506.png[/img]



 
http://www.leetleech.org/images/68177437072122253222.png
 
http://www.leetleech.org/images/28001428915436826473.png
 
http://www.leetleech.org/images/25826668116629435317.png





Source Used 


Just a Reencode of TICTAC Release .......Thanks 

Cropped the remaining black border and resized the resolution 





Enjoy





Greetz to IMAGiNE,Flawl3ss,DiLLoN,BDK,NOiR,TOXiC,THC,Ez,Rx,Boobyblue,TaRiQ786,BHRG